<?xml version="1.0" encoding="utf-8"?>
<svg xmlns="http://www.w3.org/2000/svg" width="710" zoomAndPan="magnify" viewBox="0 0 532.5 579.000005" height="772" preserveAspectRatio="none" version="1.2" xmlns:bx="https://boxy-svg.com"><defs><clipPath id="082db198ea"><path d="M 40.503906 36 L 480.492188 36 L 480.492188 545.296875 L 40.503906 545.296875 Z M 40.503906 36 "/></clipPath><clipPath id="6f6754eca1"><path d="M 265.675781 37.855469 L 475.316406 159.828125 C 478.519531 161.695312 480.492188 165.121094 480.492188 168.832031 L 480.492188 412.84375 C 480.492188 416.550781 478.519531 419.980469 475.316406 421.847656 L 265.675781 543.816406 C 262.476562 545.679688 258.519531 545.679688 255.320312 543.816406 L 45.683594 421.847656 C 42.476562 419.980469 40.503906 416.550781 40.503906 412.84375 L 40.503906 168.832031 C 40.503906 165.121094 42.476562 161.695312 45.683594 159.828125 L 255.320312 37.855469 C 258.519531 35.996094 262.476562 35.996094 265.675781 37.855469 Z M 265.675781 37.855469 "/></clipPath><clipPath id="bb8c86ca8e"><path d="M 0.210938 0 L 340 0 L 340 246 L 0.210938 246 Z M 0.210938 0 "/></clipPath><clipPath id="7bc94f7540"><path d="M 0.210938 336 L 342 336 L 342 578 L 0.210938 578 Z M 0.210938 336 "/></clipPath><clipPath id="clip-1"><path d="M 0.210938 0 L 340 0 L 340 246 L 0.210938 246 Z M 0.210938 0 "/></clipPath><clipPath id="clip-2"><path d="M 0.210938 336 L 342 336 L 342 578 L 0.210938 578 Z M 0.210938 336 "/></clipPath><bx:export><bx:file format="svg"/><bx:file format="png"/><bx:file format="png" href="#object-0" path="Untitled 2.png"/></bx:export><clipPath id="clip-3"><path d="M 40.503906 36 L 480.492188 36 L 480.492188 545.296875 L 40.503906 545.296875 Z M 40.503906 36 "/></clipPath><clipPath id="clip-4"><path d="M 265.675781 37.855469 L 475.316406 159.828125 C 478.519531 161.695312 480.492188 165.121094 480.492188 168.832031 L 480.492188 412.84375 C 480.492188 416.550781 478.519531 419.980469 475.316406 421.847656 L 265.675781 543.816406 C 262.476562 545.679688 258.519531 545.679688 255.320312 543.816406 L 45.683594 421.847656 C 42.476562 419.980469 40.503906 416.550781 40.503906 412.84375 L 40.503906 168.832031 C 40.503906 165.121094 42.476562 161.695312 45.683594 159.828125 L 255.320312 37.855469 C 258.519531 35.996094 262.476562 35.996094 265.675781 37.855469 Z M 265.675781 37.855469 "/></clipPath></defs><g clip-rule="nonzero" clip-path="url(#clip-3)" style="" transform="matrix(1.135743, 0, 0, 1.135743, -36.598995, -40.886749)" id="object-0"><g clip-rule="nonzero" clip-path="url(#clip-4)"><path style="stroke: none; fill-rule: nonzero; fill-opacity: 1; fill: rgb(255, 255, 255);" d="M 40.503906 34.84375 L 480.492188 34.84375 L 480.492188 547.015625 L 40.503906 547.015625 Z M 40.503906 34.84375 "/></g></g><g clip-rule="nonzero" clip-path="url(#082db198ea)"><g clip-rule="nonzero" clip-path="url(#6f6754eca1)"><path style=" stroke:none;fill-rule:nonzero;fill:#1c3460;fill-opacity:1;" d="M 40.503906 34.84375 L 480.492188 34.84375 L 480.492188 547.015625 L 40.503906 547.015625 Z M 40.503906 34.84375 "/></g></g><g style="fill:#ffffff;fill-opacity:1;"><g transform="translate(66.666741, 365.132238)"><path style="stroke:none" d="M 99.625 46.046875 L 46.046875 46.046875 L 46.046875 -184.0625 L 99.625 -184.0625 L 99.625 -161.109375 L 69.015625 -161.109375 L 69.015625 22.96875 L 99.625 22.96875 Z M 99.625 46.046875 "/></g><g transform="translate(204.687417, 365.132238)"><path style="stroke:none" d=""/></g><g transform="translate(342.708093, 365.132238)"><path style="stroke:none" d="M 69.015625 46.046875 L 15.4375 46.046875 L 15.4375 22.96875 L 46.046875 22.96875 L 46.046875 -161.109375 L 15.4375 -161.109375 L 15.4375 -184.0625 L 69.015625 -184.0625 Z M 69.015625 46.046875 "/></g></g><g style="fill:#ffffff;fill-opacity:1;"><g transform="translate(174.436464, 255.145644)"><path style="stroke:none" d="M 11.375 -22.390625 C 12.945312 -22.390625 14.328125 -21.914062 15.515625 -20.96875 C 16.710938 -20.019531 17.632812 -18.6875 18.28125 -16.96875 C 18.925781 -15.25 19.25 -13.253906 19.25 -10.984375 C 19.25 -8.710938 18.925781 -6.71875 18.28125 -5 C 17.632812 -3.28125 16.71875 -1.945312 15.53125 -1 C 14.34375 -0.0625 12.957031 0.40625 11.375 0.40625 C 9.78125 0.40625 8.390625 -0.0625 7.203125 -1 C 6.015625 -1.945312 5.097656 -3.28125 4.453125 -5 C 3.804688 -6.71875 3.484375 -8.710938 3.484375 -10.984375 C 3.484375 -13.253906 3.804688 -15.25 4.453125 -16.96875 C 5.097656 -18.6875 6.015625 -20.019531 7.203125 -20.96875 C 8.398438 -21.914062 9.789062 -22.390625 11.375 -22.390625 Z M 11.375 -19.640625 C 10.394531 -19.640625 9.53125 -19.296875 8.78125 -18.609375 C 8.039062 -17.929688 7.457031 -16.941406 7.03125 -15.640625 C 6.613281 -14.335938 6.40625 -12.785156 6.40625 -10.984375 C 6.40625 -9.179688 6.613281 -7.628906 7.03125 -6.328125 C 7.457031 -5.023438 8.039062 -4.03125 8.78125 -3.34375 C 9.53125 -2.664062 10.394531 -2.328125 11.375 -2.328125 C 12.34375 -2.328125 13.203125 -2.664062 13.953125 -3.34375 C 14.703125 -4.03125 15.285156 -5.023438 15.703125 -6.328125 C 16.117188 -7.628906 16.328125 -9.179688 16.328125 -10.984375 C 16.328125 -12.785156 16.117188 -14.335938 15.703125 -15.640625 C 15.285156 -16.941406 14.703125 -17.929688 13.953125 -18.609375 C 13.203125 -19.296875 12.34375 -19.640625 11.375 -19.640625 Z M 11.375 -19.640625 "/></g><g transform="translate(197.176543, 255.145644)"><path style="stroke:none" d="M 18.03125 -2.515625 C 18.457031 -2.515625 18.757812 -2.414062 18.9375 -2.21875 C 19.113281 -2.03125 19.203125 -1.710938 19.203125 -1.265625 C 19.203125 -0.804688 19.113281 -0.476562 18.9375 -0.28125 C 18.757812 -0.09375 18.457031 0 18.03125 0 L 5.5625 0 C 5.132812 0 4.832031 -0.09375 4.65625 -0.28125 C 4.476562 -0.476562 4.390625 -0.804688 4.390625 -1.265625 C 4.390625 -1.710938 4.476562 -2.03125 4.65625 -2.21875 C 4.832031 -2.414062 5.132812 -2.515625 5.5625 -2.515625 L 10.53125 -2.515625 L 10.53125 -18.40625 L 5.921875 -15.53125 C 5.710938 -15.40625 5.519531 -15.34375 5.34375 -15.34375 C 4.957031 -15.34375 4.617188 -15.597656 4.328125 -16.109375 C 4.160156 -16.398438 4.078125 -16.6875 4.078125 -16.96875 C 4.078125 -17.382812 4.265625 -17.703125 4.640625 -17.921875 L 11.625 -22.21875 C 11.875 -22.363281 12.125 -22.4375 12.375 -22.4375 C 12.644531 -22.4375 12.867188 -22.347656 13.046875 -22.171875 C 13.222656 -21.992188 13.3125 -21.742188 13.3125 -21.421875 L 13.3125 -2.515625 Z M 18.03125 -2.515625 "/></g><g transform="translate(219.916622, 255.145644)"><path style="stroke:none" d="M 18.03125 -2.515625 C 18.457031 -2.515625 18.757812 -2.414062 18.9375 -2.21875 C 19.113281 -2.03125 19.203125 -1.710938 19.203125 -1.265625 C 19.203125 -0.804688 19.113281 -0.476562 18.9375 -0.28125 C 18.757812 -0.09375 18.457031 0 18.03125 0 L 5.5625 0 C 5.132812 0 4.832031 -0.09375 4.65625 -0.28125 C 4.476562 -0.476562 4.390625 -0.804688 4.390625 -1.265625 C 4.390625 -1.710938 4.476562 -2.03125 4.65625 -2.21875 C 4.832031 -2.414062 5.132812 -2.515625 5.5625 -2.515625 L 10.53125 -2.515625 L 10.53125 -18.40625 L 5.921875 -15.53125 C 5.710938 -15.40625 5.519531 -15.34375 5.34375 -15.34375 C 4.957031 -15.34375 4.617188 -15.597656 4.328125 -16.109375 C 4.160156 -16.398438 4.078125 -16.6875 4.078125 -16.96875 C 4.078125 -17.382812 4.265625 -17.703125 4.640625 -17.921875 L 11.625 -22.21875 C 11.875 -22.363281 12.125 -22.4375 12.375 -22.4375 C 12.644531 -22.4375 12.867188 -22.347656 13.046875 -22.171875 C 13.222656 -21.992188 13.3125 -21.742188 13.3125 -21.421875 L 13.3125 -2.515625 Z M 18.03125 -2.515625 "/></g><g transform="translate(242.656701, 255.145644)"><path style="stroke:none" d="M 11.375 -22.390625 C 12.945312 -22.390625 14.328125 -21.914062 15.515625 -20.96875 C 16.710938 -20.019531 17.632812 -18.6875 18.28125 -16.96875 C 18.925781 -15.25 19.25 -13.253906 19.25 -10.984375 C 19.25 -8.710938 18.925781 -6.71875 18.28125 -5 C 17.632812 -3.28125 16.71875 -1.945312 15.53125 -1 C 14.34375 -0.0625 12.957031 0.40625 11.375 0.40625 C 9.78125 0.40625 8.390625 -0.0625 7.203125 -1 C 6.015625 -1.945312 5.097656 -3.28125 4.453125 -5 C 3.804688 -6.71875 3.484375 -8.710938 3.484375 -10.984375 C 3.484375 -13.253906 3.804688 -15.25 4.453125 -16.96875 C 5.097656 -18.6875 6.015625 -20.019531 7.203125 -20.96875 C 8.398438 -21.914062 9.789062 -22.390625 11.375 -22.390625 Z M 11.375 -19.640625 C 10.394531 -19.640625 9.53125 -19.296875 8.78125 -18.609375 C 8.039062 -17.929688 7.457031 -16.941406 7.03125 -15.640625 C 6.613281 -14.335938 6.40625 -12.785156 6.40625 -10.984375 C 6.40625 -9.179688 6.613281 -7.628906 7.03125 -6.328125 C 7.457031 -5.023438 8.039062 -4.03125 8.78125 -3.34375 C 9.53125 -2.664062 10.394531 -2.328125 11.375 -2.328125 C 12.34375 -2.328125 13.203125 -2.664062 13.953125 -3.34375 C 14.703125 -4.03125 15.285156 -5.023438 15.703125 -6.328125 C 16.117188 -7.628906 16.328125 -9.179688 16.328125 -10.984375 C 16.328125 -12.785156 16.117188 -14.335938 15.703125 -15.640625 C 15.285156 -16.941406 14.703125 -17.929688 13.953125 -18.609375 C 13.203125 -19.296875 12.34375 -19.640625 11.375 -19.640625 Z M 11.375 -19.640625 "/></g><g transform="translate(265.396781, 255.145644)"><path style="stroke:none" d="M 18.03125 -2.515625 C 18.457031 -2.515625 18.757812 -2.414062 18.9375 -2.21875 C 19.113281 -2.03125 19.203125 -1.710938 19.203125 -1.265625 C 19.203125 -0.804688 19.113281 -0.476562 18.9375 -0.28125 C 18.757812 -0.09375 18.457031 0 18.03125 0 L 5.5625 0 C 5.132812 0 4.832031 -0.09375 4.65625 -0.28125 C 4.476562 -0.476562 4.390625 -0.804688 4.390625 -1.265625 C 4.390625 -1.710938 4.476562 -2.03125 4.65625 -2.21875 C 4.832031 -2.414062 5.132812 -2.515625 5.5625 -2.515625 L 10.53125 -2.515625 L 10.53125 -18.40625 L 5.921875 -15.53125 C 5.710938 -15.40625 5.519531 -15.34375 5.34375 -15.34375 C 4.957031 -15.34375 4.617188 -15.597656 4.328125 -16.109375 C 4.160156 -16.398438 4.078125 -16.6875 4.078125 -16.96875 C 4.078125 -17.382812 4.265625 -17.703125 4.640625 -17.921875 L 11.625 -22.21875 C 11.875 -22.363281 12.125 -22.4375 12.375 -22.4375 C 12.644531 -22.4375 12.867188 -22.347656 13.046875 -22.171875 C 13.222656 -21.992188 13.3125 -21.742188 13.3125 -21.421875 L 13.3125 -2.515625 Z M 18.03125 -2.515625 "/></g><g transform="translate(288.13686, 255.145644)"><path style="stroke:none" d="M 11.375 -22.390625 C 12.945312 -22.390625 14.328125 -21.914062 15.515625 -20.96875 C 16.710938 -20.019531 17.632812 -18.6875 18.28125 -16.96875 C 18.925781 -15.25 19.25 -13.253906 19.25 -10.984375 C 19.25 -8.710938 18.925781 -6.71875 18.28125 -5 C 17.632812 -3.28125 16.71875 -1.945312 15.53125 -1 C 14.34375 -0.0625 12.957031 0.40625 11.375 0.40625 C 9.78125 0.40625 8.390625 -0.0625 7.203125 -1 C 6.015625 -1.945312 5.097656 -3.28125 4.453125 -5 C 3.804688 -6.71875 3.484375 -8.710938 3.484375 -10.984375 C 3.484375 -13.253906 3.804688 -15.25 4.453125 -16.96875 C 5.097656 -18.6875 6.015625 -20.019531 7.203125 -20.96875 C 8.398438 -21.914062 9.789062 -22.390625 11.375 -22.390625 Z M 11.375 -19.640625 C 10.394531 -19.640625 9.53125 -19.296875 8.78125 -18.609375 C 8.039062 -17.929688 7.457031 -16.941406 7.03125 -15.640625 C 6.613281 -14.335938 6.40625 -12.785156 6.40625 -10.984375 C 6.40625 -9.179688 6.613281 -7.628906 7.03125 -6.328125 C 7.457031 -5.023438 8.039062 -4.03125 8.78125 -3.34375 C 9.53125 -2.664062 10.394531 -2.328125 11.375 -2.328125 C 12.34375 -2.328125 13.203125 -2.664062 13.953125 -3.34375 C 14.703125 -4.03125 15.285156 -5.023438 15.703125 -6.328125 C 16.117188 -7.628906 16.328125 -9.179688 16.328125 -10.984375 C 16.328125 -12.785156 16.117188 -14.335938 15.703125 -15.640625 C 15.285156 -16.941406 14.703125 -17.929688 13.953125 -18.609375 C 13.203125 -19.296875 12.34375 -19.640625 11.375 -19.640625 Z M 11.375 -19.640625 "/></g><g transform="translate(310.876939, 255.145644)"><path style="stroke:none" d="M 11.375 -22.390625 C 12.945312 -22.390625 14.328125 -21.914062 15.515625 -20.96875 C 16.710938 -20.019531 17.632812 -18.6875 18.28125 -16.96875 C 18.925781 -15.25 19.25 -13.253906 19.25 -10.984375 C 19.25 -8.710938 18.925781 -6.71875 18.28125 -5 C 17.632812 -3.28125 16.71875 -1.945312 15.53125 -1 C 14.34375 -0.0625 12.957031 0.40625 11.375 0.40625 C 9.78125 0.40625 8.390625 -0.0625 7.203125 -1 C 6.015625 -1.945312 5.097656 -3.28125 4.453125 -5 C 3.804688 -6.71875 3.484375 -8.710938 3.484375 -10.984375 C 3.484375 -13.253906 3.804688 -15.25 4.453125 -16.96875 C 5.097656 -18.6875 6.015625 -20.019531 7.203125 -20.96875 C 8.398438 -21.914062 9.789062 -22.390625 11.375 -22.390625 Z M 11.375 -19.640625 C 10.394531 -19.640625 9.53125 -19.296875 8.78125 -18.609375 C 8.039062 -17.929688 7.457031 -16.941406 7.03125 -15.640625 C 6.613281 -14.335938 6.40625 -12.785156 6.40625 -10.984375 C 6.40625 -9.179688 6.613281 -7.628906 7.03125 -6.328125 C 7.457031 -5.023438 8.039062 -4.03125 8.78125 -3.34375 C 9.53125 -2.664062 10.394531 -2.328125 11.375 -2.328125 C 12.34375 -2.328125 13.203125 -2.664062 13.953125 -3.34375 C 14.703125 -4.03125 15.285156 -5.023438 15.703125 -6.328125 C 16.117188 -7.628906 16.328125 -9.179688 16.328125 -10.984375 C 16.328125 -12.785156 16.117188 -14.335938 15.703125 -15.640625 C 15.285156 -16.941406 14.703125 -17.929688 13.953125 -18.609375 C 13.203125 -19.296875 12.34375 -19.640625 11.375 -19.640625 Z M 11.375 -19.640625 "/></g><g transform="translate(333.617019, 255.145644)"><path style="stroke:none" d="M 18.03125 -2.515625 C 18.457031 -2.515625 18.757812 -2.414062 18.9375 -2.21875 C 19.113281 -2.03125 19.203125 -1.710938 19.203125 -1.265625 C 19.203125 -0.804688 19.113281 -0.476562 18.9375 -0.28125 C 18.757812 -0.09375 18.457031 0 18.03125 0 L 5.5625 0 C 5.132812 0 4.832031 -0.09375 4.65625 -0.28125 C 4.476562 -0.476562 4.390625 -0.804688 4.390625 -1.265625 C 4.390625 -1.710938 4.476562 -2.03125 4.65625 -2.21875 C 4.832031 -2.414062 5.132812 -2.515625 5.5625 -2.515625 L 10.53125 -2.515625 L 10.53125 -18.40625 L 5.921875 -15.53125 C 5.710938 -15.40625 5.519531 -15.34375 5.34375 -15.34375 C 4.957031 -15.34375 4.617188 -15.597656 4.328125 -16.109375 C 4.160156 -16.398438 4.078125 -16.6875 4.078125 -16.96875 C 4.078125 -17.382812 4.265625 -17.703125 4.640625 -17.921875 L 11.625 -22.21875 C 11.875 -22.363281 12.125 -22.4375 12.375 -22.4375 C 12.644531 -22.4375 12.867188 -22.347656 13.046875 -22.171875 C 13.222656 -21.992188 13.3125 -21.742188 13.3125 -21.421875 L 13.3125 -2.515625 Z M 18.03125 -2.515625 "/></g></g><g style="fill:#ffffff;fill-opacity:1;"><g transform="translate(174.436464, 307.292275)"><path style="stroke:none" d="M 11.375 -22.390625 C 12.945312 -22.390625 14.328125 -21.914062 15.515625 -20.96875 C 16.710938 -20.019531 17.632812 -18.6875 18.28125 -16.96875 C 18.925781 -15.25 19.25 -13.253906 19.25 -10.984375 C 19.25 -8.710938 18.925781 -6.71875 18.28125 -5 C 17.632812 -3.28125 16.71875 -1.945312 15.53125 -1 C 14.34375 -0.0625 12.957031 0.40625 11.375 0.40625 C 9.78125 0.40625 8.390625 -0.0625 7.203125 -1 C 6.015625 -1.945312 5.097656 -3.28125 4.453125 -5 C 3.804688 -6.71875 3.484375 -8.710938 3.484375 -10.984375 C 3.484375 -13.253906 3.804688 -15.25 4.453125 -16.96875 C 5.097656 -18.6875 6.015625 -20.019531 7.203125 -20.96875 C 8.398438 -21.914062 9.789062 -22.390625 11.375 -22.390625 Z M 11.375 -19.640625 C 10.394531 -19.640625 9.53125 -19.296875 8.78125 -18.609375 C 8.039062 -17.929688 7.457031 -16.941406 7.03125 -15.640625 C 6.613281 -14.335938 6.40625 -12.785156 6.40625 -10.984375 C 6.40625 -9.179688 6.613281 -7.628906 7.03125 -6.328125 C 7.457031 -5.023438 8.039062 -4.03125 8.78125 -3.34375 C 9.53125 -2.664062 10.394531 -2.328125 11.375 -2.328125 C 12.34375 -2.328125 13.203125 -2.664062 13.953125 -3.34375 C 14.703125 -4.03125 15.285156 -5.023438 15.703125 -6.328125 C 16.117188 -7.628906 16.328125 -9.179688 16.328125 -10.984375 C 16.328125 -12.785156 16.117188 -14.335938 15.703125 -15.640625 C 15.285156 -16.941406 14.703125 -17.929688 13.953125 -18.609375 C 13.203125 -19.296875 12.34375 -19.640625 11.375 -19.640625 Z M 11.375 -19.640625 "/></g><g transform="translate(197.176543, 307.292275)"><path style="stroke:none" d="M 18.03125 -2.515625 C 18.457031 -2.515625 18.757812 -2.414062 18.9375 -2.21875 C 19.113281 -2.03125 19.203125 -1.710938 19.203125 -1.265625 C 19.203125 -0.804688 19.113281 -0.476562 18.9375 -0.28125 C 18.757812 -0.09375 18.457031 0 18.03125 0 L 5.5625 0 C 5.132812 0 4.832031 -0.09375 4.65625 -0.28125 C 4.476562 -0.476562 4.390625 -0.804688 4.390625 -1.265625 C 4.390625 -1.710938 4.476562 -2.03125 4.65625 -2.21875 C 4.832031 -2.414062 5.132812 -2.515625 5.5625 -2.515625 L 10.53125 -2.515625 L 10.53125 -18.40625 L 5.921875 -15.53125 C 5.710938 -15.40625 5.519531 -15.34375 5.34375 -15.34375 C 4.957031 -15.34375 4.617188 -15.597656 4.328125 -16.109375 C 4.160156 -16.398438 4.078125 -16.6875 4.078125 -16.96875 C 4.078125 -17.382812 4.265625 -17.703125 4.640625 -17.921875 L 11.625 -22.21875 C 11.875 -22.363281 12.125 -22.4375 12.375 -22.4375 C 12.644531 -22.4375 12.867188 -22.347656 13.046875 -22.171875 C 13.222656 -21.992188 13.3125 -21.742188 13.3125 -21.421875 L 13.3125 -2.515625 Z M 18.03125 -2.515625 "/></g><g transform="translate(219.916622, 307.292275)"><path style="stroke:none" d="M 18.03125 -2.515625 C 18.457031 -2.515625 18.757812 -2.414062 18.9375 -2.21875 C 19.113281 -2.03125 19.203125 -1.710938 19.203125 -1.265625 C 19.203125 -0.804688 19.113281 -0.476562 18.9375 -0.28125 C 18.757812 -0.09375 18.457031 0 18.03125 0 L 5.5625 0 C 5.132812 0 4.832031 -0.09375 4.65625 -0.28125 C 4.476562 -0.476562 4.390625 -0.804688 4.390625 -1.265625 C 4.390625 -1.710938 4.476562 -2.03125 4.65625 -2.21875 C 4.832031 -2.414062 5.132812 -2.515625 5.5625 -2.515625 L 10.53125 -2.515625 L 10.53125 -18.40625 L 5.921875 -15.53125 C 5.710938 -15.40625 5.519531 -15.34375 5.34375 -15.34375 C 4.957031 -15.34375 4.617188 -15.597656 4.328125 -16.109375 C 4.160156 -16.398438 4.078125 -16.6875 4.078125 -16.96875 C 4.078125 -17.382812 4.265625 -17.703125 4.640625 -17.921875 L 11.625 -22.21875 C 11.875 -22.363281 12.125 -22.4375 12.375 -22.4375 C 12.644531 -22.4375 12.867188 -22.347656 13.046875 -22.171875 C 13.222656 -21.992188 13.3125 -21.742188 13.3125 -21.421875 L 13.3125 -2.515625 Z M 18.03125 -2.515625 "/></g><g transform="translate(242.656701, 307.292275)"><path style="stroke:none" d="M 11.375 -22.390625 C 12.945312 -22.390625 14.328125 -21.914062 15.515625 -20.96875 C 16.710938 -20.019531 17.632812 -18.6875 18.28125 -16.96875 C 18.925781 -15.25 19.25 -13.253906 19.25 -10.984375 C 19.25 -8.710938 18.925781 -6.71875 18.28125 -5 C 17.632812 -3.28125 16.71875 -1.945312 15.53125 -1 C 14.34375 -0.0625 12.957031 0.40625 11.375 0.40625 C 9.78125 0.40625 8.390625 -0.0625 7.203125 -1 C 6.015625 -1.945312 5.097656 -3.28125 4.453125 -5 C 3.804688 -6.71875 3.484375 -8.710938 3.484375 -10.984375 C 3.484375 -13.253906 3.804688 -15.25 4.453125 -16.96875 C 5.097656 -18.6875 6.015625 -20.019531 7.203125 -20.96875 C 8.398438 -21.914062 9.789062 -22.390625 11.375 -22.390625 Z M 11.375 -19.640625 C 10.394531 -19.640625 9.53125 -19.296875 8.78125 -18.609375 C 8.039062 -17.929688 7.457031 -16.941406 7.03125 -15.640625 C 6.613281 -14.335938 6.40625 -12.785156 6.40625 -10.984375 C 6.40625 -9.179688 6.613281 -7.628906 7.03125 -6.328125 C 7.457031 -5.023438 8.039062 -4.03125 8.78125 -3.34375 C 9.53125 -2.664062 10.394531 -2.328125 11.375 -2.328125 C 12.34375 -2.328125 13.203125 -2.664062 13.953125 -3.34375 C 14.703125 -4.03125 15.285156 -5.023438 15.703125 -6.328125 C 16.117188 -7.628906 16.328125 -9.179688 16.328125 -10.984375 C 16.328125 -12.785156 16.117188 -14.335938 15.703125 -15.640625 C 15.285156 -16.941406 14.703125 -17.929688 13.953125 -18.609375 C 13.203125 -19.296875 12.34375 -19.640625 11.375 -19.640625 Z M 11.375 -19.640625 "/></g><g transform="translate(265.396781, 307.292275)"><path style="stroke:none" d="M 11.375 -22.390625 C 12.945312 -22.390625 14.328125 -21.914062 15.515625 -20.96875 C 16.710938 -20.019531 17.632812 -18.6875 18.28125 -16.96875 C 18.925781 -15.25 19.25 -13.253906 19.25 -10.984375 C 19.25 -8.710938 18.925781 -6.71875 18.28125 -5 C 17.632812 -3.28125 16.71875 -1.945312 15.53125 -1 C 14.34375 -0.0625 12.957031 0.40625 11.375 0.40625 C 9.78125 0.40625 8.390625 -0.0625 7.203125 -1 C 6.015625 -1.945312 5.097656 -3.28125 4.453125 -5 C 3.804688 -6.71875 3.484375 -8.710938 3.484375 -10.984375 C 3.484375 -13.253906 3.804688 -15.25 4.453125 -16.96875 C 5.097656 -18.6875 6.015625 -20.019531 7.203125 -20.96875 C 8.398438 -21.914062 9.789062 -22.390625 11.375 -22.390625 Z M 11.375 -19.640625 C 10.394531 -19.640625 9.53125 -19.296875 8.78125 -18.609375 C 8.039062 -17.929688 7.457031 -16.941406 7.03125 -15.640625 C 6.613281 -14.335938 6.40625 -12.785156 6.40625 -10.984375 C 6.40625 -9.179688 6.613281 -7.628906 7.03125 -6.328125 C 7.457031 -5.023438 8.039062 -4.03125 8.78125 -3.34375 C 9.53125 -2.664062 10.394531 -2.328125 11.375 -2.328125 C 12.34375 -2.328125 13.203125 -2.664062 13.953125 -3.34375 C 14.703125 -4.03125 15.285156 -5.023438 15.703125 -6.328125 C 16.117188 -7.628906 16.328125 -9.179688 16.328125 -10.984375 C 16.328125 -12.785156 16.117188 -14.335938 15.703125 -15.640625 C 15.285156 -16.941406 14.703125 -17.929688 13.953125 -18.609375 C 13.203125 -19.296875 12.34375 -19.640625 11.375 -19.640625 Z M 11.375 -19.640625 "/></g><g transform="translate(288.13686, 307.292275)"><path style="stroke:none" d="M 11.375 -22.390625 C 12.945312 -22.390625 14.328125 -21.914062 15.515625 -20.96875 C 16.710938 -20.019531 17.632812 -18.6875 18.28125 -16.96875 C 18.925781 -15.25 19.25 -13.253906 19.25 -10.984375 C 19.25 -8.710938 18.925781 -6.71875 18.28125 -5 C 17.632812 -3.28125 16.71875 -1.945312 15.53125 -1 C 14.34375 -0.0625 12.957031 0.40625 11.375 0.40625 C 9.78125 0.40625 8.390625 -0.0625 7.203125 -1 C 6.015625 -1.945312 5.097656 -3.28125 4.453125 -5 C 3.804688 -6.71875 3.484375 -8.710938 3.484375 -10.984375 C 3.484375 -13.253906 3.804688 -15.25 4.453125 -16.96875 C 5.097656 -18.6875 6.015625 -20.019531 7.203125 -20.96875 C 8.398438 -21.914062 9.789062 -22.390625 11.375 -22.390625 Z M 11.375 -19.640625 C 10.394531 -19.640625 9.53125 -19.296875 8.78125 -18.609375 C 8.039062 -17.929688 7.457031 -16.941406 7.03125 -15.640625 C 6.613281 -14.335938 6.40625 -12.785156 6.40625 -10.984375 C 6.40625 -9.179688 6.613281 -7.628906 7.03125 -6.328125 C 7.457031 -5.023438 8.039062 -4.03125 8.78125 -3.34375 C 9.53125 -2.664062 10.394531 -2.328125 11.375 -2.328125 C 12.34375 -2.328125 13.203125 -2.664062 13.953125 -3.34375 C 14.703125 -4.03125 15.285156 -5.023438 15.703125 -6.328125 C 16.117188 -7.628906 16.328125 -9.179688 16.328125 -10.984375 C 16.328125 -12.785156 16.117188 -14.335938 15.703125 -15.640625 C 15.285156 -16.941406 14.703125 -17.929688 13.953125 -18.609375 C 13.203125 -19.296875 12.34375 -19.640625 11.375 -19.640625 Z M 11.375 -19.640625 "/></g><g transform="translate(310.876939, 307.292275)"><path style="stroke:none" d="M 18.03125 -2.515625 C 18.457031 -2.515625 18.757812 -2.414062 18.9375 -2.21875 C 19.113281 -2.03125 19.203125 -1.710938 19.203125 -1.265625 C 19.203125 -0.804688 19.113281 -0.476562 18.9375 -0.28125 C 18.757812 -0.09375 18.457031 0 18.03125 0 L 5.5625 0 C 5.132812 0 4.832031 -0.09375 4.65625 -0.28125 C 4.476562 -0.476562 4.390625 -0.804688 4.390625 -1.265625 C 4.390625 -1.710938 4.476562 -2.03125 4.65625 -2.21875 C 4.832031 -2.414062 5.132812 -2.515625 5.5625 -2.515625 L 10.53125 -2.515625 L 10.53125 -18.40625 L 5.921875 -15.53125 C 5.710938 -15.40625 5.519531 -15.34375 5.34375 -15.34375 C 4.957031 -15.34375 4.617188 -15.597656 4.328125 -16.109375 C 4.160156 -16.398438 4.078125 -16.6875 4.078125 -16.96875 C 4.078125 -17.382812 4.265625 -17.703125 4.640625 -17.921875 L 11.625 -22.21875 C 11.875 -22.363281 12.125 -22.4375 12.375 -22.4375 C 12.644531 -22.4375 12.867188 -22.347656 13.046875 -22.171875 C 13.222656 -21.992188 13.3125 -21.742188 13.3125 -21.421875 L 13.3125 -2.515625 Z M 18.03125 -2.515625 "/></g><g transform="translate(333.617019, 307.292275)"><path style="stroke:none" d="M 18.03125 -2.515625 C 18.457031 -2.515625 18.757812 -2.414062 18.9375 -2.21875 C 19.113281 -2.03125 19.203125 -1.710938 19.203125 -1.265625 C 19.203125 -0.804688 19.113281 -0.476562 18.9375 -0.28125 C 18.757812 -0.09375 18.457031 0 18.03125 0 L 5.5625 0 C 5.132812 0 4.832031 -0.09375 4.65625 -0.28125 C 4.476562 -0.476562 4.390625 -0.804688 4.390625 -1.265625 C 4.390625 -1.710938 4.476562 -2.03125 4.65625 -2.21875 C 4.832031 -2.414062 5.132812 -2.515625 5.5625 -2.515625 L 10.53125 -2.515625 L 10.53125 -18.40625 L 5.921875 -15.53125 C 5.710938 -15.40625 5.519531 -15.34375 5.34375 -15.34375 C 4.957031 -15.34375 4.617188 -15.597656 4.328125 -16.109375 C 4.160156 -16.398438 4.078125 -16.6875 4.078125 -16.96875 C 4.078125 -17.382812 4.265625 -17.703125 4.640625 -17.921875 L 11.625 -22.21875 C 11.875 -22.363281 12.125 -22.4375 12.375 -22.4375 C 12.644531 -22.4375 12.867188 -22.347656 13.046875 -22.171875 C 13.222656 -21.992188 13.3125 -21.742188 13.3125 -21.421875 L 13.3125 -2.515625 Z M 18.03125 -2.515625 "/></g></g><g style="fill:#ffffff;fill-opacity:1;"><g transform="translate(174.436464, 359.438906)"><path style="stroke:none" d="M 11.375 -22.390625 C 12.945312 -22.390625 14.328125 -21.914062 15.515625 -20.96875 C 16.710938 -20.019531 17.632812 -18.6875 18.28125 -16.96875 C 18.925781 -15.25 19.25 -13.253906 19.25 -10.984375 C 19.25 -8.710938 18.925781 -6.71875 18.28125 -5 C 17.632812 -3.28125 16.71875 -1.945312 15.53125 -1 C 14.34375 -0.0625 12.957031 0.40625 11.375 0.40625 C 9.78125 0.40625 8.390625 -0.0625 7.203125 -1 C 6.015625 -1.945312 5.097656 -3.28125 4.453125 -5 C 3.804688 -6.71875 3.484375 -8.710938 3.484375 -10.984375 C 3.484375 -13.253906 3.804688 -15.25 4.453125 -16.96875 C 5.097656 -18.6875 6.015625 -20.019531 7.203125 -20.96875 C 8.398438 -21.914062 9.789062 -22.390625 11.375 -22.390625 Z M 11.375 -19.640625 C 10.394531 -19.640625 9.53125 -19.296875 8.78125 -18.609375 C 8.039062 -17.929688 7.457031 -16.941406 7.03125 -15.640625 C 6.613281 -14.335938 6.40625 -12.785156 6.40625 -10.984375 C 6.40625 -9.179688 6.613281 -7.628906 7.03125 -6.328125 C 7.457031 -5.023438 8.039062 -4.03125 8.78125 -3.34375 C 9.53125 -2.664062 10.394531 -2.328125 11.375 -2.328125 C 12.34375 -2.328125 13.203125 -2.664062 13.953125 -3.34375 C 14.703125 -4.03125 15.285156 -5.023438 15.703125 -6.328125 C 16.117188 -7.628906 16.328125 -9.179688 16.328125 -10.984375 C 16.328125 -12.785156 16.117188 -14.335938 15.703125 -15.640625 C 15.285156 -16.941406 14.703125 -17.929688 13.953125 -18.609375 C 13.203125 -19.296875 12.34375 -19.640625 11.375 -19.640625 Z M 11.375 -19.640625 "/></g><g transform="translate(197.176543, 359.438906)"><path style="stroke:none" d="M 18.03125 -2.515625 C 18.457031 -2.515625 18.757812 -2.414062 18.9375 -2.21875 C 19.113281 -2.03125 19.203125 -1.710938 19.203125 -1.265625 C 19.203125 -0.804688 19.113281 -0.476562 18.9375 -0.28125 C 18.757812 -0.09375 18.457031 0 18.03125 0 L 5.5625 0 C 5.132812 0 4.832031 -0.09375 4.65625 -0.28125 C 4.476562 -0.476562 4.390625 -0.804688 4.390625 -1.265625 C 4.390625 -1.710938 4.476562 -2.03125 4.65625 -2.21875 C 4.832031 -2.414062 5.132812 -2.515625 5.5625 -2.515625 L 10.53125 -2.515625 L 10.53125 -18.40625 L 5.921875 -15.53125 C 5.710938 -15.40625 5.519531 -15.34375 5.34375 -15.34375 C 4.957031 -15.34375 4.617188 -15.597656 4.328125 -16.109375 C 4.160156 -16.398438 4.078125 -16.6875 4.078125 -16.96875 C 4.078125 -17.382812 4.265625 -17.703125 4.640625 -17.921875 L 11.625 -22.21875 C 11.875 -22.363281 12.125 -22.4375 12.375 -22.4375 C 12.644531 -22.4375 12.867188 -22.347656 13.046875 -22.171875 C 13.222656 -21.992188 13.3125 -21.742188 13.3125 -21.421875 L 13.3125 -2.515625 Z M 18.03125 -2.515625 "/></g><g transform="translate(219.916622, 359.438906)"><path style="stroke:none" d="M 18.03125 -2.515625 C 18.457031 -2.515625 18.757812 -2.414062 18.9375 -2.21875 C 19.113281 -2.03125 19.203125 -1.710938 19.203125 -1.265625 C 19.203125 -0.804688 19.113281 -0.476562 18.9375 -0.28125 C 18.757812 -0.09375 18.457031 0 18.03125 0 L 5.5625 0 C 5.132812 0 4.832031 -0.09375 4.65625 -0.28125 C 4.476562 -0.476562 4.390625 -0.804688 4.390625 -1.265625 C 4.390625 -1.710938 4.476562 -2.03125 4.65625 -2.21875 C 4.832031 -2.414062 5.132812 -2.515625 5.5625 -2.515625 L 10.53125 -2.515625 L 10.53125 -18.40625 L 5.921875 -15.53125 C 5.710938 -15.40625 5.519531 -15.34375 5.34375 -15.34375 C 4.957031 -15.34375 4.617188 -15.597656 4.328125 -16.109375 C 4.160156 -16.398438 4.078125 -16.6875 4.078125 -16.96875 C 4.078125 -17.382812 4.265625 -17.703125 4.640625 -17.921875 L 11.625 -22.21875 C 11.875 -22.363281 12.125 -22.4375 12.375 -22.4375 C 12.644531 -22.4375 12.867188 -22.347656 13.046875 -22.171875 C 13.222656 -21.992188 13.3125 -21.742188 13.3125 -21.421875 L 13.3125 -2.515625 Z M 18.03125 -2.515625 "/></g><g transform="translate(242.656701, 359.438906)"><path style="stroke:none" d="M 18.03125 -2.515625 C 18.457031 -2.515625 18.757812 -2.414062 18.9375 -2.21875 C 19.113281 -2.03125 19.203125 -1.710938 19.203125 -1.265625 C 19.203125 -0.804688 19.113281 -0.476562 18.9375 -0.28125 C 18.757812 -0.09375 18.457031 0 18.03125 0 L 5.5625 0 C 5.132812 0 4.832031 -0.09375 4.65625 -0.28125 C 4.476562 -0.476562 4.390625 -0.804688 4.390625 -1.265625 C 4.390625 -1.710938 4.476562 -2.03125 4.65625 -2.21875 C 4.832031 -2.414062 5.132812 -2.515625 5.5625 -2.515625 L 10.53125 -2.515625 L 10.53125 -18.40625 L 5.921875 -15.53125 C 5.710938 -15.40625 5.519531 -15.34375 5.34375 -15.34375 C 4.957031 -15.34375 4.617188 -15.597656 4.328125 -16.109375 C 4.160156 -16.398438 4.078125 -16.6875 4.078125 -16.96875 C 4.078125 -17.382812 4.265625 -17.703125 4.640625 -17.921875 L 11.625 -22.21875 C 11.875 -22.363281 12.125 -22.4375 12.375 -22.4375 C 12.644531 -22.4375 12.867188 -22.347656 13.046875 -22.171875 C 13.222656 -21.992188 13.3125 -21.742188 13.3125 -21.421875 L 13.3125 -2.515625 Z M 18.03125 -2.515625 "/></g><g transform="translate(265.396781, 359.438906)"><path style="stroke:none" d="M 11.375 -22.390625 C 12.945312 -22.390625 14.328125 -21.914062 15.515625 -20.96875 C 16.710938 -20.019531 17.632812 -18.6875 18.28125 -16.96875 C 18.925781 -15.25 19.25 -13.253906 19.25 -10.984375 C 19.25 -8.710938 18.925781 -6.71875 18.28125 -5 C 17.632812 -3.28125 16.71875 -1.945312 15.53125 -1 C 14.34375 -0.0625 12.957031 0.40625 11.375 0.40625 C 9.78125 0.40625 8.390625 -0.0625 7.203125 -1 C 6.015625 -1.945312 5.097656 -3.28125 4.453125 -5 C 3.804688 -6.71875 3.484375 -8.710938 3.484375 -10.984375 C 3.484375 -13.253906 3.804688 -15.25 4.453125 -16.96875 C 5.097656 -18.6875 6.015625 -20.019531 7.203125 -20.96875 C 8.398438 -21.914062 9.789062 -22.390625 11.375 -22.390625 Z M 11.375 -19.640625 C 10.394531 -19.640625 9.53125 -19.296875 8.78125 -18.609375 C 8.039062 -17.929688 7.457031 -16.941406 7.03125 -15.640625 C 6.613281 -14.335938 6.40625 -12.785156 6.40625 -10.984375 C 6.40625 -9.179688 6.613281 -7.628906 7.03125 -6.328125 C 7.457031 -5.023438 8.039062 -4.03125 8.78125 -3.34375 C 9.53125 -2.664062 10.394531 -2.328125 11.375 -2.328125 C 12.34375 -2.328125 13.203125 -2.664062 13.953125 -3.34375 C 14.703125 -4.03125 15.285156 -5.023438 15.703125 -6.328125 C 16.117188 -7.628906 16.328125 -9.179688 16.328125 -10.984375 C 16.328125 -12.785156 16.117188 -14.335938 15.703125 -15.640625 C 15.285156 -16.941406 14.703125 -17.929688 13.953125 -18.609375 C 13.203125 -19.296875 12.34375 -19.640625 11.375 -19.640625 Z M 11.375 -19.640625 "/></g><g transform="translate(288.13686, 359.438906)"><path style="stroke:none" d="M 18.03125 -2.515625 C 18.457031 -2.515625 18.757812 -2.414062 18.9375 -2.21875 C 19.113281 -2.03125 19.203125 -1.710938 19.203125 -1.265625 C 19.203125 -0.804688 19.113281 -0.476562 18.9375 -0.28125 C 18.757812 -0.09375 18.457031 0 18.03125 0 L 5.5625 0 C 5.132812 0 4.832031 -0.09375 4.65625 -0.28125 C 4.476562 -0.476562 4.390625 -0.804688 4.390625 -1.265625 C 4.390625 -1.710938 4.476562 -2.03125 4.65625 -2.21875 C 4.832031 -2.414062 5.132812 -2.515625 5.5625 -2.515625 L 10.53125 -2.515625 L 10.53125 -18.40625 L 5.921875 -15.53125 C 5.710938 -15.40625 5.519531 -15.34375 5.34375 -15.34375 C 4.957031 -15.34375 4.617188 -15.597656 4.328125 -16.109375 C 4.160156 -16.398438 4.078125 -16.6875 4.078125 -16.96875 C 4.078125 -17.382812 4.265625 -17.703125 4.640625 -17.921875 L 11.625 -22.21875 C 11.875 -22.363281 12.125 -22.4375 12.375 -22.4375 C 12.644531 -22.4375 12.867188 -22.347656 13.046875 -22.171875 C 13.222656 -21.992188 13.3125 -21.742188 13.3125 -21.421875 L 13.3125 -2.515625 Z M 18.03125 -2.515625 "/></g><g transform="translate(310.876939, 359.438906)"><path style="stroke:none" d="M 11.375 -22.390625 C 12.945312 -22.390625 14.328125 -21.914062 15.515625 -20.96875 C 16.710938 -20.019531 17.632812 -18.6875 18.28125 -16.96875 C 18.925781 -15.25 19.25 -13.253906 19.25 -10.984375 C 19.25 -8.710938 18.925781 -6.71875 18.28125 -5 C 17.632812 -3.28125 16.71875 -1.945312 15.53125 -1 C 14.34375 -0.0625 12.957031 0.40625 11.375 0.40625 C 9.78125 0.40625 8.390625 -0.0625 7.203125 -1 C 6.015625 -1.945312 5.097656 -3.28125 4.453125 -5 C 3.804688 -6.71875 3.484375 -8.710938 3.484375 -10.984375 C 3.484375 -13.253906 3.804688 -15.25 4.453125 -16.96875 C 5.097656 -18.6875 6.015625 -20.019531 7.203125 -20.96875 C 8.398438 -21.914062 9.789062 -22.390625 11.375 -22.390625 Z M 11.375 -19.640625 C 10.394531 -19.640625 9.53125 -19.296875 8.78125 -18.609375 C 8.039062 -17.929688 7.457031 -16.941406 7.03125 -15.640625 C 6.613281 -14.335938 6.40625 -12.785156 6.40625 -10.984375 C 6.40625 -9.179688 6.613281 -7.628906 7.03125 -6.328125 C 7.457031 -5.023438 8.039062 -4.03125 8.78125 -3.34375 C 9.53125 -2.664062 10.394531 -2.328125 11.375 -2.328125 C 12.34375 -2.328125 13.203125 -2.664062 13.953125 -3.34375 C 14.703125 -4.03125 15.285156 -5.023438 15.703125 -6.328125 C 16.117188 -7.628906 16.328125 -9.179688 16.328125 -10.984375 C 16.328125 -12.785156 16.117188 -14.335938 15.703125 -15.640625 C 15.285156 -16.941406 14.703125 -17.929688 13.953125 -18.609375 C 13.203125 -19.296875 12.34375 -19.640625 11.375 -19.640625 Z M 11.375 -19.640625 "/></g><g transform="translate(333.617019, 359.438906)"><path style="stroke:none" d="M 11.375 -22.390625 C 12.945312 -22.390625 14.328125 -21.914062 15.515625 -20.96875 C 16.710938 -20.019531 17.632812 -18.6875 18.28125 -16.96875 C 18.925781 -15.25 19.25 -13.253906 19.25 -10.984375 C 19.25 -8.710938 18.925781 -6.71875 18.28125 -5 C 17.632812 -3.28125 16.71875 -1.945312 15.53125 -1 C 14.34375 -0.0625 12.957031 0.40625 11.375 0.40625 C 9.78125 0.40625 8.390625 -0.0625 7.203125 -1 C 6.015625 -1.945312 5.097656 -3.28125 4.453125 -5 C 3.804688 -6.71875 3.484375 -8.710938 3.484375 -10.984375 C 3.484375 -13.253906 3.804688 -15.25 4.453125 -16.96875 C 5.097656 -18.6875 6.015625 -20.019531 7.203125 -20.96875 C 8.398438 -21.914062 9.789062 -22.390625 11.375 -22.390625 Z M 11.375 -19.640625 C 10.394531 -19.640625 9.53125 -19.296875 8.78125 -18.609375 C 8.039062 -17.929688 7.457031 -16.941406 7.03125 -15.640625 C 6.613281 -14.335938 6.40625 -12.785156 6.40625 -10.984375 C 6.40625 -9.179688 6.613281 -7.628906 7.03125 -6.328125 C 7.457031 -5.023438 8.039062 -4.03125 8.78125 -3.34375 C 9.53125 -2.664062 10.394531 -2.328125 11.375 -2.328125 C 12.34375 -2.328125 13.203125 -2.664062 13.953125 -3.34375 C 14.703125 -4.03125 15.285156 -5.023438 15.703125 -6.328125 C 16.117188 -7.628906 16.328125 -9.179688 16.328125 -10.984375 C 16.328125 -12.785156 16.117188 -14.335938 15.703125 -15.640625 C 15.285156 -16.941406 14.703125 -17.929688 13.953125 -18.609375 C 13.203125 -19.296875 12.34375 -19.640625 11.375 -19.640625 Z M 11.375 -19.640625 "/></g></g><g clip-rule="nonzero" clip-path="url(#bb8c86ca8e)"><path style="fill:none;stroke-width:25;stroke-linecap:round;stroke-linejoin:miter;stroke:#000000;stroke-opacity:1;stroke-miterlimit:4;" d="M 12.498505 12.500748 L 352.635967 12.499153 " transform="matrix(0.648177,-0.374225,0.374225,0.648177,0.20894,136.687837)"/></g><g clip-rule="nonzero" clip-path="url(#7bc94f7540)"><path style="fill:none;stroke-width:25;stroke-linecap:round;stroke-linejoin:miter;stroke:#000000;stroke-opacity:1;stroke-miterlimit:4;" d="M 12.498511 12.498892 L 336.907961 12.499882 " transform="matrix(0.645874,0.376969,-0.376969,0.645874,22.982979,429.739173)"/></g><path style="fill: none; stroke-width: 18.694; stroke-linecap: round; stroke-linejoin: miter; stroke: rgb(0, 0, 0); stroke-opacity: 1; stroke-miterlimit: 4; transform-box: fill-box; transform-origin: 50% 50%;" d="M -117.75 271.027 L 142.09 271.027" transform="matrix(0, -1, 1, 0, 0.000007, -0.000011)"/><g clip-rule="nonzero" clip-path="url(#clip-1)" style="" transform="matrix(-1, 0, 0, 1, 521.041382, 0)"><path style="fill:none;stroke-width:25;stroke-linecap:round;stroke-linejoin:miter;stroke:#000000;stroke-opacity:1;stroke-miterlimit:4;" d="M 12.498505 12.500748 L 352.635967 12.499153 " transform="matrix(0.648177,-0.374225,0.374225,0.648177,0.20894,136.687837)"/></g><g clip-rule="nonzero" clip-path="url(#clip-2)" style="" transform="matrix(-1, 0, 0, 1, 521.041382, 0)"><path style="fill:none;stroke-width:25;stroke-linecap:round;stroke-linejoin:miter;stroke:#000000;stroke-opacity:1;stroke-miterlimit:4;" d="M 12.498511 12.498892 L 336.907961 12.499882 " transform="matrix(0.645874,0.376969,-0.376969,0.645874,22.982979,429.739173)"/></g><path style="fill: none; stroke-width: 18.694; stroke-linecap: round; stroke-linejoin: miter; stroke: rgb(0, 0, 0); stroke-opacity: 1; stroke-miterlimit: 4; transform-origin: 508.871px 271.027px;" d="M 378.951 271.027 L 638.792 271.027" transform="matrix(0, -1, 1, 0, -0.000008, -0.000026)"/></svg>